<?xml version="1.0" encoding="UTF-8"?>
<svg version="1.1" xmlns="http://www.w3.org/2000/svg" width="500" height="500">
<path d="M0 0 C5.78414176 4.58999636 10.90490997 9.8794043 16.09765625 15.11328125 C43.94486454 42.73176503 86.42563728 63.90857813 126.16186523 64.08178711 C127.62749195 64.06832671 129.09308029 64.04999661 130.55859375 64.02734375 C132.17773225 64.01469948 133.79687299 64.00233837 135.41601562 63.99023438 C137.92821487 63.96546794 140.44029289 63.93746286 142.95239258 63.90405273 C145.40446675 63.87357877 147.85638901 63.855999 150.30859375 63.83984375 C151.04637558 63.82638412 151.78415741 63.8129245 152.54429626 63.79905701 C162.22562043 63.75326064 170.26202192 66.06491817 178 72 C185.4960819 79.48033383 187.35625077 88.833085 188.125 99.0625 C188.20282715 100.0107666 188.2806543 100.9590332 188.36083984 101.93603516 C195.61895873 194.86125954 178.80811811 286.91796948 96.8762207 407.54418945 C92.65757936 412.43099354 88.36623848 417.24489341 84 422 C83.48566406 422.56477051 82.97132813 423.12954102 82.44140625 423.71142578 C74.64367308 432.26326998 66.63525587 440.29610995 58 448 C56.98860885 448.93243252 55.97951751 449.86736532 54.97265625 450.8046875 C48.52366499 456.80502625 41.88627413 462.50369941 35 468 C34.27796387 468.58056152 33.55592773 469.16112305 32.81201172 469.75927734 C26.71583918 474.65467047 20.57275235 479.4838922 14.375 484.25 C13.48554688 484.94351562 12.59609375 485.63703125 11.6796875 486.3515625 C0.63191086 494.83235574 -7.95705029 498.02492117 -22 497 C-31.20822181 495.11217871 -38.66986486 488.54870788 -46 483 C-47.02867187 482.23042969 -47.02867187 482.23042969 -48.078125 481.4453125 C-60.67009162 472.02431557 -72.70452534 462.1484504 -84.26953125 451.484375 C-86.38550882 449.55910786 -88.52601368 447.68762222 -90.6953125 445.82421875 C-95.70192884 441.45512921 -100.37619549 436.76999353 -105.0625 432.0625 C-106.35124023 430.77956055 -106.35124023 430.77956055 -107.66601562 429.47070312 C-112.6528738 424.47622561 -117.42686812 419.37469154 -122 414 C-122.87722399 412.99055491 -123.75480152 411.9814169 -124.6328125 410.97265625 C-147.0457492 384.8008101 -166.16181114 356.02143468 -181.06884766 324.93164062 C-182.01331185 322.97238507 -182.97999717 321.02523482 -183.94921875 319.078125 C-215.75456616 254.37852789 -223.19920194 181.46982394 -219.125 110.375 C-219.06632751 109.32005844 -219.06632751 109.32005844 -219.00646973 108.24380493 C-217.44689005 81.07978984 -217.44689005 81.07978984 -207.78125 71.890625 C-199.67015395 65.34767419 -192.39791136 63.7939203 -182.05859375 64.0078125 C-180.50001298 64.028199 -178.9414181 64.04752758 -177.3828125 64.06591797 C-176.57489258 64.07637146 -175.76697266 64.08682495 -174.93457031 64.09759521 C-125.87446001 64.63601889 -82.71179865 48.70913562 -46.4375 15.1875 C-45.85371582 14.64843018 -45.26993164 14.10936035 -44.66845703 13.55395508 C-42.2024799 11.2337766 -39.99646755 8.99546394 -37.91015625 6.31640625 C-35.81307624 3.77332149 -33.8422394 2.39641917 -31 0.75 C-30.154375 0.24984375 -29.30875 -0.2503125 -28.4375 -0.765625 C-20.40602617 -4.83284572 -7.69054203 -4.93945382 0 0 Z M-18.43359375 35.30859375 C-19.43784194 36.34872608 -20.4389331 37.39191221 -21.4375 38.4375 C-26.96801369 44.08414867 -32.73151608 49.17168569 -39 54 C-39.52867676 54.41572266 -40.05735352 54.83144531 -40.60205078 55.25976562 C-57.43916785 68.44810798 -76.07970213 78.32016986 -96 86 C-96.75313477 86.29100586 -97.50626953 86.58201172 -98.28222656 86.88183594 C-116.29154022 93.68642307 -135.83264372 97.90889177 -155.09375 98.31640625 C-155.92588013 98.33718735 -156.75801025 98.35796844 -157.61535645 98.37937927 C-160.24349636 98.44416194 -162.87172625 98.50342412 -165.5 98.5625 C-167.29427971 98.60575322 -169.0885507 98.64936954 -170.8828125 98.69335938 C-175.25511885 98.79976894 -179.62751463 98.90123163 -184 99 C-187.36024242 150.25263376 -185.99767566 200.01292085 -173 250 C-172.76055664 250.92570801 -172.52111328 251.85141602 -172.27441406 252.80517578 C-156.86606062 311.02817751 -123.39701403 365.48111393 -80.47265625 407.4921875 C-79.08281731 408.91520562 -77.81682986 410.4562094 -76.5625 412 C-73.99074995 415.01082933 -71.29823607 417.4636038 -68.29296875 420.0234375 C-65.70580781 422.25359668 -63.19925698 424.56031382 -60.6875 426.875 C-52.02052329 434.7681395 -42.82566892 442.00915019 -33.57421875 449.19921875 C-31.15158766 451.08466638 -28.76457303 453.00595252 -26.39453125 454.95703125 C-25.81364746 455.42633057 -25.23276367 455.89562988 -24.63427734 456.37915039 C-23.52986153 457.27142302 -22.43451786 458.17508257 -21.35009766 459.09155273 C-18.31851497 461.52305126 -18.31851497 461.52305126 -14.56396484 461.77539062 C-11.87690524 460.96277386 -10.32092171 460.03614252 -8.13671875 458.296875 C-7.42257812 457.73508545 -6.7084375 457.1732959 -5.97265625 456.59448242 C-5.21855469 455.98580322 -4.46445312 455.37712402 -3.6875 454.75 C-2.89859375 454.12391846 -2.1096875 453.49783691 -1.296875 452.8527832 C1.14312335 450.91127652 3.57211995 448.95662928 6 447 C7.46206573 445.83181363 8.92429779 444.66383539 10.38671875 443.49609375 C16.9316138 438.24607134 23.38191499 432.92914777 29.55493164 427.24145508 C31.89286935 425.09820934 34.25811874 422.98957994 36.62890625 420.8828125 C42.10417534 415.95709072 47.35362385 410.83004891 52.5625 405.625 C53.88411133 404.32175781 53.88411133 404.32175781 55.23242188 402.9921875 C61.26143811 396.97651964 66.68946365 390.65209609 72 384 C72.86357927 382.97261049 73.73197496 381.94920564 74.609375 380.93359375 C125.93577863 321.08400995 155.26547859 239.83695808 155.1328125 161.09765625 C155.13376923 159.8174913 155.13472595 158.53732635 155.13571167 157.21836853 C155.13717153 154.53008798 155.13509036 151.84184104 155.13037109 149.15356445 C155.12468069 145.75080461 155.12795951 142.34812381 155.13394356 138.94536686 C155.13847852 135.64195742 155.13527945 132.33856791 155.1328125 129.03515625 C155.13584885 127.23607567 155.13584885 127.23607567 155.13894653 125.40065002 C155.85462479 111.83271731 155.85462479 111.83271731 153 99 C151.96931396 98.9906543 150.93862793 98.98130859 149.87670898 98.97167969 C110.5809673 98.55457694 110.5809673 98.55457694 92 94 C91.12182617 93.78714355 90.24365234 93.57428711 89.33886719 93.35498047 C52.07877754 84.05686372 17.14893926 65.02394735 -9.62792969 37.31542969 C-11.05242259 35.84440163 -12.52306105 34.41836347 -14 33 C-16.3172351 32.77059033 -16.3172351 32.77059033 -18.43359375 35.30859375 Z " fill="#051877" transform="translate(265,3)"/>
<path d="M0 0 C32.34 0 64.68 0 98 0 C98 2.31 98 4.62 98 7 C96.23017023 8.76982977 93.52618681 8.2136276 91.125 8.3125 C83.29245893 8.88119935 75.74036221 9.86815748 70.375 16 C68.33158254 20.45836537 67.87290856 23.96828453 67.85282898 28.87138367 C67.84567368 30.07236694 67.83851837 31.27335022 67.83114624 32.51072693 C67.82845734 33.82549515 67.82576843 35.14026337 67.82299805 36.49487305 C67.8167297 37.89643521 67.81008257 39.29799573 67.80308533 40.69955444 C67.78206537 45.3035975 67.77167653 49.90764076 67.76171875 54.51171875 C67.75766872 56.10246103 67.75355173 57.69320315 67.74936867 59.28394508 C67.73031195 66.76814379 67.71608876 74.25233268 67.7077567 81.73655099 C67.69801879 90.33944483 67.67179217 98.942079 67.63125581 107.54488152 C67.60092324 114.21438918 67.58627124 120.88382322 67.58297569 127.55339843 C67.58064226 131.5261967 67.57190965 135.49871782 67.54651451 139.47144127 C66.69645495 172.30893419 66.69645495 172.30893419 81.1875 200.8125 C92.49006842 210.91109917 106.81038568 216.62362018 122 217 C122.69738281 217.03867187 123.39476562 217.07734375 124.11328125 217.1171875 C141.57064706 217.69165292 159.37389423 212.4912102 172.8125 201.1875 C180.8652989 193.56610104 184.2030108 185.64501185 187 175 C189.64 175 192.28 175 195 175 C194.58727689 172.56926183 194.58727689 172.56926183 193 170 C190.423896 168.35697906 187.63524039 167.27731466 184.8125 166.125 C175.37722925 161.96154321 169.5946167 157.92303519 165.64453125 148.08984375 C164.8904086 145.64465819 164.67196333 143.54228417 165 141 C169.62067282 142.46865251 172.81095718 145.14773085 176.375 148.3125 C180.75380187 152.16228394 185.20891713 155.67050064 190 159 C189.823479 158.45061768 189.64695801 157.90123535 189.46508789 157.33520508 C188.66141803 154.8285268 187.86192478 152.32053518 187.0625 149.8125 C186.78470703 148.94818359 186.50691406 148.08386719 186.22070312 147.19335938 C185.81948242 145.93168945 185.81948242 145.93168945 185.41015625 144.64453125 C185.16402588 143.87471924 184.91789551 143.10490723 184.66430664 142.31176758 C183.26422193 137.43951396 182.90043881 133.07762084 183 128 C182.195625 127.95875 181.39125 127.9175 180.5625 127.875 C171.765363 125.71429968 165.6734112 119.52601284 161 112 C157.77344575 105.76264893 156.45017931 99.97777927 156 93 C160.89899855 96.98755696 165.40487359 101.29457191 169.875 105.75 C170.45854248 106.32903076 171.04208496 106.90806152 171.64331055 107.50463867 C175.87625696 111.75251392 175.87625696 111.75251392 177 114 C176.25886305 108.25618868 173.56405843 103.12811685 171 98 C169.35857037 96.9590934 167.69287785 95.95495674 166 95 C166.875 91.125 166.875 91.125 168 90 C169.66617115 89.95936168 171.33388095 89.957279 173 90 C173.391875 91.0725 173.78375 92.145 174.1875 93.25 C175.96686691 98.00916797 177.93671929 102.68356898 179.9140625 107.36328125 C180.67700767 109.21575604 181.36645851 111.09937554 182 113 C182.19335938 112.05898437 182.38671875 111.11796875 182.5859375 110.1484375 C182.84632813 108.90320313 183.10671875 107.65796875 183.375 106.375 C183.63023437 105.14523438 183.88546875 103.91546875 184.1484375 102.6484375 C185 99 185 99 186.1640625 95.9765625 C187.57334684 90.95845657 186.71188522 87.33906099 184.29296875 82.7890625 C183.59816406 81.74492187 182.90335938 80.70078125 182.1875 79.625 C176.59453939 70.98450505 172.83356075 63.64392542 172.9375 53.25 C172.94652344 52.07953125 172.95554687 50.9090625 172.96484375 49.703125 C172.98224609 48.36507812 172.98224609 48.36507812 173 47 C173.66 47 174.32 47 175 47 C176.74577551 49.29975231 178.35421768 51.59194868 179.9375 54 C180.38029297 54.64839844 180.82308594 55.29679687 181.27929688 55.96484375 C184.27988373 60.48137537 186.26289307 64.86320854 188 70 C188.08403571 66.05032152 188.0242865 62.12957104 187.75 58.1875 C187.70359375 57.43855469 187.6571875 56.68960938 187.609375 55.91796875 C187.16417336 53.7940627 187.16417336 53.7940627 184.953125 52.73828125 C184.30859375 52.49464844 183.6640625 52.25101563 183 52 C183.33 50.35 183.66 48.7 184 47 C185.8125 46.3125 185.8125 46.3125 188 46 C189.75 46.9375 189.75 46.9375 191 49 C191.00833309 50.91869304 191.01182489 52.8376329 190.98144531 54.75610352 C191.01138247 58.3765299 191.50908817 61.91767041 192 65.5 C192.14308594 66.59054688 192.14308594 66.59054688 192.2890625 67.703125 C192.52146167 69.46935867 192.76006638 71.23477406 193 73 C194.17635297 70.64729407 194.13359359 69.179248 194.125 66.5625 C194.12757813 65.78003906 194.13015625 64.99757813 194.1328125 64.19140625 C194.08382548 61.82104653 194.08382548 61.82104653 193 59 C192.00804975 49.27888754 193.96161349 41.81233628 198 33 C198.66 33 199.32 33 200 33 C201.37319571 40.16023479 202.2247322 47.21527271 202.3125 54.5 C202.32925781 55.8096875 202.34601563 57.119375 202.36328125 58.46875 C201.96779754 62.31302173 201.01444639 63.77784049 199 67 C197.93177898 70.18533368 197.12529976 73.42893421 196.3125 76.6875 C196.08755859 77.55439453 195.86261719 78.42128906 195.63085938 79.31445312 C194.44265703 83.60516621 194.44265703 83.60516621 194 88 C194.78310547 87.23816406 194.78310547 87.23816406 195.58203125 86.4609375 C208.90636704 74 208.90636704 74 217 74 C212.81293715 88.39941126 205.19497797 99.4541857 192 107 C190.01724216 107.71632101 188.01983903 108.39610038 186 109 C185.97308315 111.45840605 185.95320198 113.91651882 185.9375 116.375 C185.92912109 117.07367188 185.92074219 117.77234375 185.91210938 118.4921875 C185.8164558 122.37295376 185.8164558 122.37295376 187 126 C188.76449484 121.00614667 190.21173633 116.25509114 191 111 C192 110 192 110 194.5625 109.9375 C195.366875 109.958125 196.17125 109.97875 197 110 C197.66 111.32 198.32 112.64 199 114 C199.45375 113.505 199.9075 113.01 200.375 112.5 C202 111 202 111 204 111 C203.71763109 123.83366693 203.17474731 135.45193895 195 146 C194.44957031 146.45246094 193.89914062 146.90492188 193.33203125 147.37109375 C191.75102389 148.93282475 191.75102389 148.93282475 192.109375 151.19140625 C192.32078125 151.97386719 192.5321875 152.75632812 192.75 153.5625 C192.95109375 154.34753906 193.1521875 155.13257813 193.359375 155.94140625 C193.95004098 158.0344525 193.95004098 158.0344525 195 160 C195.33773437 159.25234375 195.67546875 158.5046875 196.0234375 157.734375 C196.46945312 156.74953125 196.91546875 155.7646875 197.375 154.75 C197.81585938 153.77546875 198.25671875 152.8009375 198.7109375 151.796875 C199.76638138 149.50688161 200.85543935 147.24633399 202 145 C203.66611905 144.957279 205.33382885 144.95936168 207 145 C208 146 208 146 208.0625 148.5625 C208.041875 149.366875 208.02125 150.17125 208 151 C207.23300781 151.22300781 206.46601563 151.44601562 205.67578125 151.67578125 C201.47374254 153.75533033 200.68610545 156.9949108 198.94140625 161.16796875 C197.37640932 165.87594707 197.41591319 169.24773958 199 174 C201.01508358 174.73323796 201.01508358 174.73323796 203 175 C199.74182752 191.94249689 191.04465476 208.93102946 176.625 219 C161.76187509 228.49781463 144.5461434 233.04518918 126.9765625 233.23828125 C126.23695282 233.24802979 125.49734314 233.25777832 124.73532104 233.26782227 C98.27387003 233.5454324 72.02560149 231.66504091 51.6875 212.25 C33.94407766 193.3993881 29.84696254 169.7329512 29.8581543 144.80859375 C29.85282106 142.85698424 29.84748185 140.90537474 29.84191763 138.95376587 C29.83675793 136.87828526 29.83381944 134.80281086 29.83133507 132.72732544 C29.82536529 128.3799452 29.80877163 124.03264424 29.78999329 119.68530273 C29.783658 118.18995671 29.77733235 116.69461064 29.77101612 115.19926453 C29.76785031 114.45101599 29.7646845 113.70276745 29.76142275 112.93184471 C29.7195231 102.82860008 29.68636135 92.72539622 29.67407227 82.62207031 C29.66566673 75.78126294 29.64309417 68.94065661 29.6047166 62.09994984 C29.58505864 58.49077714 29.57251734 54.88190418 29.57755089 51.27267456 C29.5831009 47.24530697 29.55768658 43.21868289 29.5300293 39.19140625 C29.53663071 38.01393829 29.54323212 36.83647034 29.55003357 35.62332153 C29.45612838 27.26371183 28.59951869 18.52475124 22.3671875 12.421875 C17.99149733 10.57413576 13.81621747 9.85053236 9.125 9.25 C8.24585938 9.12496094 7.36671875 8.99992188 6.4609375 8.87109375 C4.30918146 8.56704127 2.15480697 8.28161834 0 8 C0 5.36 0 2.72 0 0 Z M194 117 C191.23342124 121.67747741 191.23342124 121.67747741 192 127 C193.65 123.7 195.3 120.4 197 117 C196.01 117 195.02 117 194 117 Z M190 128 C191 130 191 130 191 130 Z " fill="#CCA200" transform="translate(131,133)"/>
<path d="M0 0 C26.73 0 53.46 0 81 0 C81 2.31 81 4.62 81 7 C79.9378125 7.17015625 78.875625 7.3403125 77.78125 7.515625 C65.01187367 9.36156121 65.01187367 9.36156121 54.6875 16.5625 C52.74016932 20.52928472 51.64833563 24.42225305 50.61328125 28.70703125 C50 31 50 31 49 32 C46.13732433 32.07325168 43.299281 32.09238205 40.4375 32.0625 C39.63119141 32.05798828 38.82488281 32.05347656 37.99414062 32.04882812 C35.99606244 32.03700518 33.99802217 32.01906914 32 32 C31.76925781 31.13117188 31.53851563 30.26234375 31.30078125 29.3671875 C28.82940225 20.17660472 28.82940225 20.17660472 23 13 C15.87812304 9.30717491 7.87242177 8.87129668 0 8 C0 5.36 0 2.72 0 0 Z " fill="#CCA200" transform="translate(288,133)"/>
</svg>
